<?xml version="1.0" encoding="utf-8"?>
<!-- Generator: Adobe Illustrator 25.0.1, SVG Export Plug-In . SVG Version: 6.00 Build 0)  -->
<svg version="1.1" id="svg12" xmlns="http://www.w3.org/2000/svg" xmlns:xlink="http://www.w3.org/1999/xlink" x="0px" y="0px"
	 viewBox="0 0 82 18" style="enable-background:new 0 0 82 18;" xml:space="preserve">
<style type="text/css">
	.st0{fill:#FFFFFF;}
</style>
<g>
	<g>
		<path class="st0" d="M18.7,3.81c1.24,0,2.49,0,3.73,0c1.67,0.01,2.72,0.92,2.72,2.38c0,1.88,0,3.76,0,5.63
			c0,1.45-1.06,2.37-2.73,2.37c-2.49,0-4.97,0-7.46,0c-1.66,0-2.74-0.94-2.74-2.37c0-1.88,0-3.76,0-5.63c0-1.44,1.08-2.37,2.74-2.38
			C16.21,3.8,17.45,3.81,18.7,3.81z M18.66,11.82c0.55,0,1.1,0.01,1.64,0c0.99-0.02,1.59-0.49,1.62-1.36c0.04-0.97,0.04-1.95,0-2.93
			c-0.04-0.82-0.61-1.31-1.52-1.33c-1.16-0.03-2.32-0.03-3.47,0c-0.92,0.02-1.46,0.54-1.47,1.35c-0.01,0.98-0.02,1.95,0,2.93
			c0.01,0.8,0.57,1.3,1.5,1.34C17.52,11.83,18.09,11.81,18.66,11.82z"/>
		<path class="st0" d="M46.64,14.19c-1.24,0-2.49,0-3.73,0c-1.61-0.01-2.71-0.96-2.72-2.35c-0.01-1.9-0.01-3.79,0-5.69
			c0.01-1.37,1.11-2.34,2.67-2.34c2.53-0.01,5.06-0.01,7.58,0c1.63,0,2.67,0.93,2.67,2.35c0,1.92,0,3.83,0,5.75
			c0,1.35-1.07,2.28-2.62,2.29C49.21,14.2,47.93,14.19,46.64,14.19z M46.69,6.19c-0.57,0-1.14-0.01-1.7,0
			c-0.96,0.03-1.53,0.52-1.55,1.35c-0.03,0.97-0.03,1.95,0,2.93c0.02,0.83,0.61,1.33,1.56,1.34c1.12,0.02,2.23,0.02,3.35,0
			c0.94-0.02,1.54-0.54,1.56-1.35c0.02-0.97,0.03-1.95,0-2.93c-0.02-0.81-0.63-1.32-1.57-1.34C47.78,6.17,47.24,6.19,46.69,6.19z"/>
		<path class="st0" d="M61.54,14.19c-1.24,0-2.49,0-3.73,0c-1.63-0.01-2.7-0.92-2.71-2.34c-0.01-1.9-0.01-3.79,0-5.69
			c0.01-1.43,1.06-2.35,2.69-2.35c2.51-0.01,5.01-0.01,7.52,0c1.65,0,2.72,0.95,2.72,2.4c0.01,1.88,0.01,3.76,0,5.64
			c-0.01,1.41-1.09,2.35-2.7,2.35C64.06,14.2,62.8,14.19,61.54,14.19z M64.75,9c0-0.5,0.01-0.99,0-1.49
			c-0.01-0.75-0.54-1.28-1.39-1.3c-1.2-0.04-2.4-0.03-3.6,0c-0.87,0.02-1.44,0.55-1.46,1.32c-0.02,0.99-0.03,1.99,0,2.98
			c0.02,0.74,0.59,1.28,1.41,1.3c1.22,0.03,2.44,0.04,3.66,0c0.84-0.03,1.36-0.56,1.37-1.31C64.75,9.99,64.75,9.49,64.75,9z"/>
		<path class="st0" d="M70.05,11c1.13,0,2.17,0,3.21,0c0.2,1,0.33,1.1,1.47,1.1c0.99,0,1.98,0,2.97,0c0.87,0,1.2-0.29,1.2-1.02
			c0-0.73-0.32-1.01-1.21-1.01c-1.67-0.01-3.33,0-5,0c-1.7,0-2.71-0.89-2.72-2.37c0-0.52,0-1.03,0-1.55
			c0.01-1.39,1.06-2.33,2.65-2.33c2.11-0.01,4.22,0,6.32,0c1.75,0,2.8,0.89,2.86,2.41c0.01,0.24,0,0.48,0,0.76
			c-1.11,0-2.19,0-3.27,0c-0.29-1-0.38-1.06-1.59-1.06c-0.91,0-1.81-0.01-2.72,0c-0.78,0.01-1.11,0.31-1.12,0.98
			c-0.01,0.72,0.3,1.03,1.12,1.04c1.73,0.01,3.46,0,5.19,0.01c1.75,0,2.77,0.91,2.78,2.45c0,0.5,0.01,1,0,1.49
			c-0.02,1.36-1.11,2.31-2.69,2.31c-2.23,0.01-4.47,0-6.7,0c-1.71,0-2.75-0.92-2.75-2.42C70.05,11.54,70.05,11.3,70.05,11z"/>
		<path class="st0" d="M30.32,3.83c0,1.37,0,2.71,0,4.2c0.76-0.69,1.4-1.28,2.05-1.87c0.58-0.53,1.16-1.06,1.74-1.6
			c0.52-0.48,1.18-0.72,1.91-0.75c0.95-0.03,1.9-0.01,3.01-0.01c-1.84,1.77-3.61,3.45-5.31,5.08c1.92,1.77,3.82,3.53,5.75,5.31
			c-0.23,0-0.52,0-0.82,0c-0.67,0-1.35-0.01-2.02,0c-1.04,0.03-1.86-0.32-2.57-0.97c-1.18-1.07-2.42-2.1-3.71-3.21
			c0,1.41,0,2.76,0,4.09c-1.49,0.29-3.16-0.84-3.2-2.19c-0.06-1.93-0.05-3.87,0-5.8C27.19,4.78,28.61,3.77,30.32,3.83z"/>
		<path class="st0" d="M0,14.15c0-0.18,0-0.36,0-0.53c0-2.45,0-4.9,0-7.35c0-1.56,1.05-2.46,2.84-2.46c2.46,0,4.93,0,7.43,0
			c0,0.79,0,1.55,0,2.36c-2.33,0-4.64,0-7,0c0,0.74,0,1.42,0,2.17c2.17,0,4.33,0,6.52,0c0,0.8,0,1.55,0,2.36c-2.17,0-4.33,0-6.54,0
			c0,1.18,0,2.3,0,3.46C2.16,14.15,1.12,14.15,0,14.15z"/>
	</g>
</g>
</svg>
